<?xml version="1.0" encoding="UTF-8"?>
<svg width="192px" height="192px" viewBox="0 0 192 192" version="1.1" xmlns="http://www.w3.org/2000/svg" xmlns:xlink="http://www.w3.org/1999/xlink">
    <title>SirmoniLogo@1x</title>
    <g id="SirmoniLogo" stroke="none" stroke-width="1" fill="none" fill-rule="evenodd">
        <rect fill="#FFFFFF" x="0" y="0" width="192" height="192"></rect>
        <g id="S" transform="translate(0, 12.9219)" fill="#000000" fill-rule="nonzero">
            <path d="M0,165.921875 L0,138.578125 C49.2083333,138.578125 79.2083333,138.578125 90,138.578125 C98.0208333,138.578125 104.328125,136.481771 108.921875,132.289063 C113.515625,128.096354 115.8125,122.901042 115.8125,116.703125 C115.8125,113.057292 115.010417,109.958333 113.40625,107.40625 C111.802083,104.854167 109.359375,102.757813 106.078125,101.117188 C102.796875,99.4765625 94.8489583,96.7239583 82.234375,92.859375 C70.9322917,89.4322917 62.65625,85.7135417 57.40625,81.703125 C52.15625,77.6927083 47.9817708,72.4244792 44.8828125,65.8984375 C41.7838542,59.3723958 40.234375,52.3541667 40.234375,44.84375 C40.234375,36.09375 42.2213542,28.21875 46.1953125,21.21875 C50.1692708,14.21875 55.65625,8.93229167 62.65625,5.359375 C69.65625,1.78645833 78.296875,0 88.578125,0 C98.8836806,0 133.357639,0 192,0 L192,26.796875 C127.378472,26.796875 92.6857639,26.796875 87.921875,26.796875 C80.7760417,26.796875 75.2708333,28.2916667 71.40625,31.28125 C67.5416667,34.2708333 65.609375,37.9895833 65.609375,42.4375 C65.609375,46.8125 67.359375,50.4947917 70.859375,53.484375 C74.359375,56.4739583 82.4166667,59.7552083 95.03125,63.328125 C108.375,67.1927083 118.018229,71.2578125 123.960938,75.5234375 C129.903646,79.7890625 134.442708,85.2942708 137.578125,92.0390625 C140.713542,98.7838542 142.28125,106.96875 142.28125,116.59375 C142.28125,130.520833 137.997396,142.223958 129.429688,151.703125 C120.861979,161.182292 107.463542,165.921875 89.234375,165.921875 C67.7482639,165.921875 38.0034722,165.921875 0,165.921875 Z" id="Path"></path>
        </g>
    </g>
</svg>